<svg xmlns="http://www.w3.org/2000/svg" version="1.1" viewBox="-5.0 -10.0 110.0 135.0">
 <path d="m50.012 54.352c12.84 0 23.281-10.441 23.281-23.281-0.003907-12.84-10.453-23.281-23.281-23.281-12.84 0-23.281 10.441-23.281 23.281 0 12.84 10.441 23.281 23.281 23.281zm0-43.832c11.328 0 20.551 9.2188 20.551 20.551 0 11.328-9.2188 20.551-20.551 20.551-11.328 0-20.551-9.2188-20.551-20.551 0-11.332 9.2109-20.551 20.551-20.551zm27.297 75.68c-5.5508-0.87109-12.941-1.4414-21.02-1.6406l19.352-41.012 0.050781-0.10938c0.089844-0.19141 0.17969-0.37109 0.26953-0.57031l0.019531-0.039063c0-0.011719 0.011719-0.011719 0.011719-0.019531 1.6719-3.6992 2.5195-7.6406 2.5195-11.73 0-15.719-12.789-28.512-28.512-28.512-15.719 0-28.512 12.789-28.512 28.512 0 4.0703 0.83984 8.0117 2.5 11.691l0.011719 0.019531c0 0.011719 0.011719 0.019532 0.011719 0.03125 0.10156 0.21094 0.19141 0.42188 0.28906 0.62109l0.10938 0.23047c0 0.011719 0.011719 0.011719 0.011719 0.019531l0.03125 0.058594 19.262 40.82c-8.0703 0.19922-15.48 0.76953-21.031 1.6406-9.2305 1.4414-10.48 3.2188-10.48 4.7617 0 1.6289 1.4102 3.5 11.84 4.9609 6.9414 0.96875 16.148 1.5117 25.949 1.5117 9.8008 0 19.012-0.53906 25.949-1.5117 10.441-1.4609 11.84-3.3281 11.84-4.9609 0.007812-1.5625-1.2422-3.332-10.473-4.7734zm-27.297-80.898c14.211 0 25.781 11.559 25.781 25.781 0 3.6992-0.76172 7.2617-2.2695 10.602l-22.344 47.336c-0.32813 0.69141-0.98047 0.73828-1.1719 0.73828-0.19141 0-0.85156-0.050781-1.1719-0.73828l-1.7383-3.6914s0-0.011719-0.011718-0.011719l-20.164-42.758c0-0.011719-0.011719-0.019532-0.011719-0.03125l-0.39844-0.83984v-0.011719c0-0.011719-0.011719-0.011719-0.011719-0.019531-1.5-3.3281-2.2617-6.8906-2.2617-10.578-0.007812-14.219 11.551-25.777 25.773-25.777zm24.277 88.09c-6.6484 0.84766-15.277 1.3086-24.289 1.3086s-17.641-0.46875-24.289-1.3086c-7.1484-0.91016-9.6602-1.9492-10.469-2.4414 0.75-0.44922 2.9492-1.3711 9.0781-2.2383 5.5586-0.78906 12.871-1.3008 20.672-1.4492l1.3789 2.9219c0.67188 1.4219 2.0703 2.3086 3.6406 2.3086 1.5703 0 2.9688-0.87891 3.6406-2.3086l1.3789-2.9219c7.8008 0.14844 15.102 0.66016 20.66 1.4492 6.1289 0.87109 8.3203 1.7891 9.0781 2.2383-0.82031 0.49219-3.3281 1.5312-10.48 2.4414zm-38.008-51.879c-0.57812 0.96094-0.44141 2.1406 0.35938 2.9414 0.46875 0.46875 1.0703 0.71094 1.6914 0.71094 0.42969 0 0.85938-0.12109 1.25-0.35937 0.26953-0.16016 0.53906-0.32813 0.80078-0.48828l1.3594 1.9414c0.48047 0.69141 1.2305 1.1211 2.0703 1.1992 0.078125 0.011719 0.17188 0.011719 0.25 0.011719 0.75 0 1.4609-0.28906 2-0.82812l0.67969-0.67969c0.76172-0.76172 1.0195-1.8594 0.69141-2.8711l-0.94922-2.9219c1.9219-1.4297 3.7891-2.9414 5.5898-4.5195l3.8008 6.8594c0.35938 0.64063 0.98047 1.0703 1.7109 1.1719 0.10937 0.019531 0.21875 0.019531 0.32812 0.019531 0.60938 0 1.1992-0.23828 1.6289-0.67969l0.011719-0.011719c0.5-0.5 0.73828-1.1914 0.67187-1.8906l-1.3008-12.078 2.7695-2.7695c1.3086-1.3086 2.6406-3.7891 2.6406-5.9805 0-1.0703-0.32813-1.9609-0.96094-2.5898-2.1094-2.1016-6.4805-0.41016-8.5586 1.6797l-2.7695 2.7695-12.07-1.3008c-0.69922-0.078125-1.3984 0.17188-1.9102 0.67969-0.51953 0.51953-0.76172 1.2383-0.66016 1.9688 0.10156 0.73047 0.53125 1.3516 1.1797 1.7109l6.8594 3.8008c-1.5781 1.8008-3.0898 3.6719-4.5312 5.6016l-2.9141-0.94922c-1.0195-0.32812-2.1211-0.058594-2.8711 0.69141l-0.67969 0.67969c-0.58984 0.58984-0.89062 1.4102-0.82031 2.25 0.070313 0.83984 0.51172 1.5898 1.1992 2.0703l1.9492 1.3594c-0.16797 0.25781-0.33594 0.52734-0.49609 0.80078zm8.5469 2.4102c0.011719 0.039063 0 0.070313-0.019531 0.10156l-0.67969 0.67969c-0.011718 0.011719-0.03125 0.03125-0.078125 0.03125-0.050781 0-0.058593-0.03125-0.070312-0.039063l-1.3008-1.8516c0.48828-0.32812 0.98828-0.66016 1.4688-1zm12.48-4.4531-3.1719-5.7109c0.71094-0.66016 1.3984-1.3281 2.0898-2.0195l0.21875-0.21875zm-0.57031-18.16c1.1602-1.1602 3.0391-1.8516 4.0703-1.8516 0.28906 0 0.51953 0.058594 0.64062 0.17188 0.10156 0.10156 0.16016 0.33984 0.16016 0.66016 0 1.1992-0.83984 3.0508-1.8398 4.0508l-3.2305 3.2305c-0.011718 0.011719-0.011718 0.011719-0.019531 0.019532l-2.2188 2.2188c-4.5195 4.5195-9.5508 8.5312-14.961 11.93 3.3984-5.4102 7.4102-10.441 11.93-14.961zm-15.117 2.4609 7.9492 0.85156-0.21875 0.21875c-0.67969 0.67969-1.3594 1.3789-2.0195 2.0898zm-5.2305 13.34c-0.011719-0.011719-0.039063-0.03125-0.039063-0.070313 0-0.050781 0.019532-0.070312 0.03125-0.078124l0.67969-0.67969c0.03125-0.03125 0.070312-0.039062 0.10156-0.019531l2.0898 0.67969c-0.33984 0.48828-0.67188 0.98047-1 1.4688z"/>
<text x="0.0" y="117.5" font-size="5.0" font-weight="bold" font-family="Arbeit Regular, Helvetica, Arial-Unicode, Arial, Sans-serif" fill="#000000">Created by Wehape</text><text x="0.0" y="122.5" font-size="5.0" font-weight="bold" font-family="Arbeit Regular, Helvetica, Arial-Unicode, Arial, Sans-serif" fill="#000000">from Noun Project</text></svg>